<svg data-name="Layer 1" xmlns="http://www.w3.org/2000/svg" width="182.55907" height="377.44458" viewBox="0 0 182.55907 377.44458" xmlns:xlink="http://www.w3.org/1999/xlink"><path d="M634.71459,422.66446q-18.52442,3.74561-37.04785,7.49169-15.9668,77.77075-31.93555,155.541C631.47533,630.29727,659.29174,451.89932,634.71459,422.66446Z" transform="translate(-508.72046 -261.27771)" fill="#ffa0a2"/><path d="M631.42471,616.168c.01737-.02576.03359-.05211.051-.07817-.02664.03562-.05327.0718-.07991.10886Z" transform="translate(-508.72046 -261.27771)"/><path d="M690.25,386.213a140.85749,140.85749,0,0,1-4.44815,22.41212c1.76085-8.077,3.42557-16.17476,4.51647-24.37128,2.02662-12.20432,1.29125-25.55889-6.54309-35.68852-12.4863-16.74163-36.01422-16.6762-54.87744-19.67386-20.17009-3.03241-40.48842-1.94093-60.78243-1.4667-14.12034.28923-29.24009-1.729-42.19715,5.10767-15.88409,7.96057-18.24365,27.02181-16.86092,42.97653a219.51088,219.51088,0,0,0,9.84128,55.26076C530.74621,468.68087,535.3698,497.24552,536.03048,536c.80833,25.51516-3.81932,51.2521.689,76.58081,3.25939,18.50364,17.4938,24.957,34.87121,25.70393,14.755.66763,29.67032.91372,44.24462-1.83669,7.337-1.77011,15.338-1.91574,22.01953-5.68323,12.39887-7.80249,11.0393-20.50912,8.23793-33.0154-2.4968-8.973-2.98145-28.63211-1.58134-35.74034,2.52864-14.42665,7.12212-28.42221,12.06187-42.183,6.3109-17.219,11.51237-34.81186,17.43473-52.16437,8.359-23.95351,15.52277-48.59086,16.554-74.09415C690.7694,391.29288,690.44514,382.97621,690.25,386.213Zm-9.385,38.73569c-5.48577,16.02883-11.17942,27.6712-17.96918,43.79065-6.29411,14.62237-11.7492,29.5826-17.76131,44.3199-13.462,32.68506-20.04445,56.26191-13.22052,91.82391.78806,5.92468,1.03184,2.99766.667,8.8572-.06253.25738-.15691.57238-.271.905a13.50849,13.50849,0,0,1-.83439,1.4444,6.48784,6.48784,0,0,1,.53155-.6213c-.02084.06138-.01795.062.01853-.01911.2264-.22235.21482-.13781-.46844.57788-.04285.04835-.08917.09322-.1326.1407-.11233.16677-.21019.34279-.33005.50376l-.00347.00232a4.42649,4.42649,0,0,1,.30457-.47539c-.12276.13318-.24493.26752-.3729.39548-.18587.18529-.39258.348-.58946.52229-.40127.264-.813.51071-1.23739.73654a27.76144,27.76144,0,0,1-2.77068.72755c-17.08732,3.09089-24.24824,4.6537-42.44788,4.4108-12.32707.01448-20.89157-.55385-25.33161-2.94729-11.10126-3.467-8.473-36.67316-7.33637-63.89532a428.77283,428.77283,0,0,0-2.92239-68.57972c-2.89286-28.311-13.42782-54.94228-19.84757-82.49247-3.49564-16.072-5.762-43.43223-.978-51.97908,4.97043-8.387,12.27206-9.02251,32.78205-8.80972,15.72426.3286,31.41495-1.13346,47.12763-1.13462,15.18.41112,30.36458,1.14765,45.48665,2.55934,11.40641,1.17167,23.27083,4.25648,29.00212,18.12668,2.17369,5.27385,2.8917,12.78566,2.93339,21.1035-19.42893-2.63924-39.10106-3.11753-58.68575-2.8199-17.38378.2927-34.64017,2.47045-51.92784,4.0958-13.69938.943-27.45319.85523-41.15026,1.89837,16.07343,2.7313,32.14627,6.23041,48.50169,6.54569,34.4103.97857,70.505-4.83059,101.94775-8.97648.43717-.05675.87492-.10944,1.31267-.165.01332,10.1858-.95078,21.52041-1.51244,31.4468Q682.15019,420.9745,680.865,424.9487Z" transform="translate(-508.72046 -261.27771)"/><path d="M577.14947,426.58505c-12.50483.30978-12.47183,18.62986.00058,18.97381C589.65546,445.24878,589.62246,426.929,577.14947,426.58505Z" transform="translate(-508.72046 -261.27771)"/><path d="M637.52426,417.05211c-12.50483.31007-12.47183,18.62986.00058,18.97381C650.03026,435.71585,649.99725,417.39577,637.52426,417.05211Z" transform="translate(-508.72046 -261.27771)"/><path d="M661.87615,261.42639c-24.785-1.74-51.31116,11.93854-59.18025,33.33272-4.33291,12.6438-5.81814,26.04845-7.21361,39.27882a320.7111,320.7111,0,0,0-1.53965,50.49877c1.0052,23.10262,2.33351,46.17484,2.51069,69.30872.17487,6.75444.31384,13.51149.4667,20.268a10.28334,10.28334,0,0,0,.16908,6.93915c.48928,19.68718,1.23392,39.36191,3.47363,58.94892,1.37173-17.75176,3.36593-35.45227,5.352-53.15336,11.54016-.44644,12.20605-16.36063,2.0602-18.67619,2.26-21.04675,4.19858-42.119,4.74693-63.30471,1.86449-34.6063-2.01967-69.39326,2.04978-103.8962.747-13.596,15.41738-28.75892,36.94358-33.64771,8.02773-2.22291,16.836-1.67109,26.272-.98609q5.74026.37521,11.48979.59293C680.3462,264.79638,671.25883,262.1664,661.87615,261.42639Z" transform="translate(-508.72046 -261.27771)"/><path d="M586.6827,544.15689c-12.50484.31007-12.47241,18.63015,0,18.97381C599.18811,562.82092,599.15511,544.50084,586.6827,544.15689Z" transform="translate(-508.72046 -261.27771)"/></svg>